# xmcd
#
# Track frame offsets:
# 150
# 19754
# 37628
# 52337
# 68958
# 80245
# 94066
# 108950
# 123637
# 139726
# 157050
# 176444
# 194530
# 208529
# 221446
# 237085
# 255099
# 272978
# 289174
# 303036
#
# Disc length: 4270 seconds
#
# Revision: 0
# Processed by: cddbd v1.4PL0 Copyright (c) Steve Scherf et al.
# Submitted via: MacMP3 Pro 5.0 (http://mp3.act2.co.jp/)
#
DISCID=2010ac14
DTITLE=ÍOEÂ•≈@ÛTÈ¸ÚY - ÍOEÂ•≈@ÛTÈ¸ÚY≈@…x…X…g…q…b…g20
DYEAR=1900
DGENRE=
TTITLE0=„?Áø«√Û^«√ÔÆÂÕ
TTITLE1=Ï“Íl«√Í¢‰E
TTITLE2=Í'«¢…n…Ï…J…`
TTITLE3=Á∞Ë(TM)« Á∞Ò»«?ÛLÏ‘«ß
TTITLE4=‚•«’Î"«°«?«»«?
TTITLE5=ÈK«--«?…i…C…t
TTITLE6=‚•«’«ÆÎO«...È?«¢«“«Ê
TTITLE7=Ò»Ò?«√Ò„Ë?
TTITLE8=…u…‚…Ï…f≈[…O…‚…X
TTITLE9=Û[Ûz«√„u
TTITLE10=Òk«√Û<sum>Íl
TTITLE11=‚?«(TM)ÍlÍ?‚~«¢«ª«µ
TTITLE12=„?«°«?‚†Èø
TTITLE13=ÛÌ«?Â?«'Ìj
TTITLE14=Ô†«Õ«√Ò»ÒÊ«ÿ
TTITLE15=Û^«√Ì®ÈDÒy
TTITLE16=…T…‡…i…‚‚∞Ôl
TTITLE17=«Æ«Õ«√Ë®ÌM
TTITLE18=Á`Ì®≈@Û<Ì®≈@Ô†«ÕÌ®
TTITLE19=«>«“«ªÌN«©«?‡ß«µ«?«»
EXTD=
EXTT0=
EXTT1=
EXTT2=
EXTT3=
EXTT4=
EXTT5=
EXTT6=
EXTT7=
EXTT8=
EXTT9=
EXTT10=
EXTT11=
EXTT12=
EXTT13=
EXTT14=
EXTT15=
EXTT16=
EXTT17=
EXTT18=
EXTT19=
PLAYORDER=
